<mxfile host="65bd71144e" modified="2021-03-02T20:57:21.537Z" agent="5.0 (Windows NT 10.0; Win64; x64) AppleWebKit/537.36 (KHTML, like Gecko) Code/1.53.2 Chrome/87.0.4280.141 Electron/11.2.1 Safari/537.36" etag="Sl12662aClj5vaYLUM5U" version="14.2.4" type="embed">
    <diagram id="FsBsqWAckKVM1cpH725o" name="Page-1">
        <mxGraphModel dx="1107" dy="750" grid="1" gridSize="10" guides="1" tooltips="1" connect="1" arrows="1" fold="1" page="1" pageScale="1" pageWidth="827" pageHeight="1169" math="0" shadow="0">
            <root>
                <mxCell id="0"/>
                <mxCell id="1" parent="0"/>
                <mxCell id="3" value="" style="group" vertex="1" connectable="0" parent="1">
                    <mxGeometry x="24" y="134" width="780" height="326" as="geometry"/>
                </mxCell>
                <mxCell id="2" value="" style="rounded=0;whiteSpace=wrap;html=1;" vertex="1" parent="3">
                    <mxGeometry width="780" height="326" as="geometry"/>
                </mxCell>
                <mxCell id="1vtmkvGAjezP2SpuHdWP-17" value="" style="rounded=0;whiteSpace=wrap;html=1;dashed=1;fillColor=none;" parent="3" vertex="1">
                    <mxGeometry x="11" y="11" width="150" height="300" as="geometry"/>
                </mxCell>
                <mxCell id="1vtmkvGAjezP2SpuHdWP-16" value="" style="rounded=0;whiteSpace=wrap;html=1;dashed=1;fillColor=none;" parent="3" vertex="1">
                    <mxGeometry x="170" y="11" width="270" height="300" as="geometry"/>
                </mxCell>
                <mxCell id="1vtmkvGAjezP2SpuHdWP-9" value="" style="rounded=0;whiteSpace=wrap;html=1;dashed=1;fillColor=none;" parent="3" vertex="1">
                    <mxGeometry x="610" y="11" width="150" height="300" as="geometry"/>
                </mxCell>
                <mxCell id="1vtmkvGAjezP2SpuHdWP-6" value="" style="rounded=0;whiteSpace=wrap;html=1;dashed=1;fillColor=none;" parent="3" vertex="1">
                    <mxGeometry x="450" y="11" width="150" height="300" as="geometry"/>
                </mxCell>
                <mxCell id="1vtmkvGAjezP2SpuHdWP-1" value="Client" style="rounded=0;whiteSpace=wrap;html=1;" parent="3" vertex="1">
                    <mxGeometry x="26" y="136" width="120" height="60" as="geometry"/>
                </mxCell>
                <mxCell id="1vtmkvGAjezP2SpuHdWP-3" value="API Gateway" style="rounded=0;whiteSpace=wrap;html=1;" parent="3" vertex="1">
                    <mxGeometry x="186" y="136" width="80" height="60" as="geometry"/>
                </mxCell>
                <mxCell id="1vtmkvGAjezP2SpuHdWP-5" value="Content&lt;br&gt;Database" style="shape=cylinder3;whiteSpace=wrap;html=1;boundedLbl=1;backgroundOutline=1;size=15;" parent="3" vertex="1">
                    <mxGeometry x="475" y="81" width="100" height="80" as="geometry"/>
                </mxCell>
                <mxCell id="1vtmkvGAjezP2SpuHdWP-7" value="Backend" style="text;html=1;strokeColor=none;fillColor=none;align=center;verticalAlign=middle;whiteSpace=wrap;rounded=0;dashed=1;" parent="3" vertex="1">
                    <mxGeometry x="505" y="291" width="40" height="20" as="geometry"/>
                </mxCell>
                <mxCell id="1vtmkvGAjezP2SpuHdWP-10" value="" style="rounded=0;whiteSpace=wrap;html=1;fillColor=none;" parent="3" vertex="1">
                    <mxGeometry x="625" y="20" width="120" height="197" as="geometry"/>
                </mxCell>
                <mxCell id="1vtmkvGAjezP2SpuHdWP-11" value="Data" style="text;html=1;strokeColor=none;fillColor=none;align=center;verticalAlign=middle;whiteSpace=wrap;rounded=0;dashed=1;" parent="3" vertex="1">
                    <mxGeometry x="665" y="291" width="40" height="20" as="geometry"/>
                </mxCell>
                <mxCell id="1vtmkvGAjezP2SpuHdWP-12" value="Library" style="text;html=1;strokeColor=none;fillColor=none;align=center;verticalAlign=middle;whiteSpace=wrap;rounded=0;" parent="3" vertex="1">
                    <mxGeometry x="665" y="20" width="40" height="20" as="geometry"/>
                </mxCell>
                <mxCell id="1vtmkvGAjezP2SpuHdWP-13" value="Books" style="rounded=0;whiteSpace=wrap;html=1;fillColor=none;" parent="3" vertex="1">
                    <mxGeometry x="635" y="51" width="100" height="40" as="geometry"/>
                </mxCell>
                <mxCell id="1vtmkvGAjezP2SpuHdWP-14" value="Films" style="rounded=0;whiteSpace=wrap;html=1;fillColor=none;" parent="3" vertex="1">
                    <mxGeometry x="635" y="102" width="100" height="40" as="geometry"/>
                </mxCell>
                <mxCell id="1vtmkvGAjezP2SpuHdWP-15" value="Shows" style="rounded=0;whiteSpace=wrap;html=1;fillColor=none;" parent="3" vertex="1">
                    <mxGeometry x="635" y="154" width="100" height="40" as="geometry"/>
                </mxCell>
                <mxCell id="1vtmkvGAjezP2SpuHdWP-19" value="Account&lt;br&gt;Database" style="shape=cylinder3;whiteSpace=wrap;html=1;boundedLbl=1;backgroundOutline=1;size=15;" parent="3" vertex="1">
                    <mxGeometry x="475" y="176" width="100" height="80" as="geometry"/>
                </mxCell>
                <mxCell id="1vtmkvGAjezP2SpuHdWP-20" value="" style="rounded=0;whiteSpace=wrap;html=1;fillColor=none;" parent="3" vertex="1">
                    <mxGeometry x="280" y="53" width="150" height="213" as="geometry"/>
                </mxCell>
                <mxCell id="1vtmkvGAjezP2SpuHdWP-21" value="Microservices" style="text;html=1;strokeColor=none;fillColor=none;align=center;verticalAlign=middle;whiteSpace=wrap;rounded=0;" parent="3" vertex="1">
                    <mxGeometry x="307.5" y="63" width="95" height="20" as="geometry"/>
                </mxCell>
                <mxCell id="1vtmkvGAjezP2SpuHdWP-22" value="Recommendation Service" style="rounded=0;whiteSpace=wrap;html=1;fillColor=none;" parent="3" vertex="1">
                    <mxGeometry x="295" y="91" width="120" height="60" as="geometry"/>
                </mxCell>
                <mxCell id="1vtmkvGAjezP2SpuHdWP-23" value="Account Service" style="rounded=0;whiteSpace=wrap;html=1;fillColor=none;" parent="3" vertex="1">
                    <mxGeometry x="295" y="186" width="120" height="60" as="geometry"/>
                </mxCell>
                <mxCell id="1vtmkvGAjezP2SpuHdWP-25" value="" style="endArrow=classic;startArrow=classic;html=1;entryX=0;entryY=0.5;entryDx=0;entryDy=0;entryPerimeter=0;exitX=1;exitY=0.5;exitDx=0;exitDy=0;" parent="3" source="1vtmkvGAjezP2SpuHdWP-22" target="1vtmkvGAjezP2SpuHdWP-5" edge="1">
                    <mxGeometry width="50" height="50" relative="1" as="geometry">
                        <mxPoint x="380" y="286" as="sourcePoint"/>
                        <mxPoint x="430" y="416" as="targetPoint"/>
                    </mxGeometry>
                </mxCell>
                <mxCell id="1vtmkvGAjezP2SpuHdWP-26" value="" style="endArrow=classic;startArrow=classic;html=1;exitX=1;exitY=0.5;exitDx=0;exitDy=0;entryX=0;entryY=0.5;entryDx=0;entryDy=0;entryPerimeter=0;" parent="3" source="1vtmkvGAjezP2SpuHdWP-23" target="1vtmkvGAjezP2SpuHdWP-19" edge="1">
                    <mxGeometry width="50" height="50" relative="1" as="geometry">
                        <mxPoint x="380" y="286" as="sourcePoint"/>
                        <mxPoint x="480" y="236" as="targetPoint"/>
                    </mxGeometry>
                </mxCell>
                <mxCell id="1vtmkvGAjezP2SpuHdWP-27" value="" style="endArrow=classic;startArrow=classic;html=1;exitX=1;exitY=0.5;exitDx=0;exitDy=0;entryX=0;entryY=0.5;entryDx=0;entryDy=0;" parent="3" source="1vtmkvGAjezP2SpuHdWP-1" target="1vtmkvGAjezP2SpuHdWP-3" edge="1">
                    <mxGeometry width="50" height="50" relative="1" as="geometry">
                        <mxPoint x="380" y="286" as="sourcePoint"/>
                        <mxPoint x="430" y="236" as="targetPoint"/>
                    </mxGeometry>
                </mxCell>
                <mxCell id="1vtmkvGAjezP2SpuHdWP-28" value="" style="endArrow=classic;startArrow=classic;html=1;exitX=1;exitY=0.5;exitDx=0;exitDy=0;entryX=0;entryY=0.5;entryDx=0;entryDy=0;" parent="3" source="1vtmkvGAjezP2SpuHdWP-3" target="1vtmkvGAjezP2SpuHdWP-22" edge="1">
                    <mxGeometry width="50" height="50" relative="1" as="geometry">
                        <mxPoint x="380" y="286" as="sourcePoint"/>
                        <mxPoint x="430" y="236" as="targetPoint"/>
                    </mxGeometry>
                </mxCell>
                <mxCell id="1vtmkvGAjezP2SpuHdWP-29" value="" style="endArrow=classic;startArrow=classic;html=1;exitX=1;exitY=0.5;exitDx=0;exitDy=0;entryX=0;entryY=0.5;entryDx=0;entryDy=0;" parent="3" source="1vtmkvGAjezP2SpuHdWP-3" target="1vtmkvGAjezP2SpuHdWP-23" edge="1">
                    <mxGeometry width="50" height="50" relative="1" as="geometry">
                        <mxPoint x="380" y="286" as="sourcePoint"/>
                        <mxPoint x="430" y="236" as="targetPoint"/>
                    </mxGeometry>
                </mxCell>
                <mxCell id="1vtmkvGAjezP2SpuHdWP-30" value="Client" style="text;html=1;strokeColor=none;fillColor=none;align=center;verticalAlign=middle;whiteSpace=wrap;rounded=0;" parent="3" vertex="1">
                    <mxGeometry x="66" y="291" width="40" height="20" as="geometry"/>
                </mxCell>
                <mxCell id="1vtmkvGAjezP2SpuHdWP-31" value="Server" style="text;html=1;strokeColor=none;fillColor=none;align=center;verticalAlign=middle;whiteSpace=wrap;rounded=0;" parent="3" vertex="1">
                    <mxGeometry x="285" y="291" width="40" height="20" as="geometry"/>
                </mxCell>
                <mxCell id="1vtmkvGAjezP2SpuHdWP-33" value="" style="endArrow=classic;startArrow=classic;html=1;exitX=1;exitY=0;exitDx=0;exitDy=27.5;exitPerimeter=0;entryX=0;entryY=0.5;entryDx=0;entryDy=0;" parent="3" source="1vtmkvGAjezP2SpuHdWP-5" target="1vtmkvGAjezP2SpuHdWP-13" edge="1">
                    <mxGeometry width="50" height="50" relative="1" as="geometry">
                        <mxPoint x="380" y="286" as="sourcePoint"/>
                        <mxPoint x="430" y="236" as="targetPoint"/>
                    </mxGeometry>
                </mxCell>
                <mxCell id="1vtmkvGAjezP2SpuHdWP-35" value="" style="endArrow=classic;startArrow=classic;html=1;exitX=1;exitY=0.5;exitDx=0;exitDy=0;exitPerimeter=0;entryX=0;entryY=0.5;entryDx=0;entryDy=0;" parent="3" source="1vtmkvGAjezP2SpuHdWP-5" target="1vtmkvGAjezP2SpuHdWP-14" edge="1">
                    <mxGeometry width="50" height="50" relative="1" as="geometry">
                        <mxPoint x="585" y="117" as="sourcePoint"/>
                        <mxPoint x="645" y="131" as="targetPoint"/>
                    </mxGeometry>
                </mxCell>
                <mxCell id="1vtmkvGAjezP2SpuHdWP-36" value="" style="endArrow=classic;startArrow=classic;html=1;exitX=1;exitY=0;exitDx=0;exitDy=52.5;exitPerimeter=0;entryX=0;entryY=0.5;entryDx=0;entryDy=0;" parent="3" source="1vtmkvGAjezP2SpuHdWP-5" target="1vtmkvGAjezP2SpuHdWP-15" edge="1">
                    <mxGeometry width="50" height="50" relative="1" as="geometry">
                        <mxPoint x="585" y="117" as="sourcePoint"/>
                        <mxPoint x="645" y="131" as="targetPoint"/>
                    </mxGeometry>
                </mxCell>
            </root>
        </mxGraphModel>
    </diagram>
</mxfile>